<svg width="32" height="32" viewBox="0 0 32 32" fill="none" xmlns="http://www.w3.org/2000/svg">
  <defs>
    <linearGradient id="greenInfinityGradient" x1="0%" y1="0%" x2="100%" y2="0%">
      <stop offset="0%" style="stop-color:#39FF14;stop-opacity:1" />
      <stop offset="100%" style="stop-color:#00AA00;stop-opacity:1" />
    </linearGradient>
  </defs>

  <path d="M 4,16 C 4,8 10,4 16,4 C 22,4 28,8 28,16 C 28,24 22,28 16,28 C 10,28 4,24 4,16 Z M 16,4 C 13,4 10,6 8,8 L 8,24 C 10,26 13,28 16,28 C 19,28 22,26 24,24 L 24,8 C 22,6 19,4 16,4 Z"
        fill="url(#greenInfinityGradient)"
        stroke="none"/>

  <rect x="15" y="8" width="2" height="16" fill="#FFFFFF"/>
</svg>
